 <svg  version="1.0" xmlns="http://www.w3.org/2000/svg"  width="2304.000000pt" height="333.000000pt" viewBox="0 0 2304.000000 333.000000"  preserveAspectRatio="xMidYMid meet">  <g transform="translate(0.000000,333.000000) scale(0.100000,-0.100000)" fill="#eb7100" stroke="none"> <path d="M99 3303 c0 -16 -2 -39 -4 -53 -5 -46 10 -58 82 -65 96 -10 131 -29 157 -84 21 -45 21 -54 21 -751 0 -762 1 -752 -54 -804 -25 -24 -39 -28 -110 -33 -45 -3 -84 -10 -87 -14 -10 -17 -13 -73 -4 -89 8 -15 47 -17 430 -17 l421 -1 -3 57 -3 56 -75 6 c-41 3 -85 10 -97 17 -67 37 -83 133 -83 484 0 235 1 247 19 253 24 7 87 -18 120 -48 21 -20 99 -112 161 -192 14 -17 42 -52 62 -76 20 -24 98 -120 173 -214 76 -93 169 -209 208 -258 l70 -87 246 2 246 3 0 54 0 55 -60 12 c-102 19 -138 46 -276 204 -36 41 -99 113 -140 159 -41 47 -121 139 -179 205 -57 67 -119 137 -137 156 -18 19 -33 40 -33 45 0 6 28 18 63 28 153 43 293 151 349 267 29 63 58 190 58 257 0 59 -28 167 -57 219 -69 124 -227 217 -406 239 -39 5 -57 12 -57 21 0 12 -39 14 -216 14 -122 0 -213 -4 -210 -9 9 -14 -32 -21 -127 -21 -69 0 -89 3 -93 15 -5 13 -36 15 -190 15 l-184 0 -1 -27z m926 -151 c75 -27 106 -46 150 -94 53 -57 63 -76 86 -165 23 -92 24 -140 3 -230 -28 -126 -73 -187 -165 -226 -44 -18 -251 -40 -339 -35 l-65 3 -3 363 c-1 239 1 370 8 382 10 18 22 20 143 20 100 -1 144 -5 182 -18z"/> <path d="M2256 3299 c-18 -91 4 -119 91 -119 65 0 91 -10 129 -49 30 -31 31 -36 42 -169 15 -172 16 -1058 2 -1225 -16 -184 -39 -215 -168 -224 -86 -6 -102 -17 -102 -69 0 -17 6 -36 13 -42 17 -14 855 -14 863 0 12 19 14 69 4 88 -7 14 -26 18 -88 22 -141 8 -163 42 -182 278 -14 166 -8 1096 8 1220 16 132 41 157 164 170 52 5 86 13 92 22 6 8 9 40 8 71 l-4 57 -130 0 c-73 0 -127 -4 -124 -9 11 -17 -26 -21 -182 -21 -160 0 -206 5 -196 21 3 5 -47 9 -114 9 l-119 0 -7 -31z"/> <path d="M3402 3323 c1 -5 -3 -18 -10 -30 -9 -16 -12 -84 -10 -250 l3 -228 57 -3 c64 -3 56 -15 78 118 12 71 40 139 68 162 52 46 169 71 342 72 122 1 177 -13 191 -51 5 -14 9 -306 9 -706 0 -645 -1 -685 -19 -746 -11 -35 -28 -72 -37 -82 -29 -32 -102 -59 -178 -65 -47 -4 -75 -12 -83 -22 -14 -17 -17 -70 -5 -89 11 -17 943 -17 954 0 12 19 9 72 -4 89 -9 10 -37 17 -86 21 -94 8 -165 44 -195 102 -22 40 -22 44 -25 746 -2 388 1 721 5 740 12 44 54 57 186 58 183 2 304 -30 351 -92 35 -45 66 -134 66 -187 0 -65 8 -72 71 -68 l54 3 3 220 c2 152 -1 232 -9 258 l-12 37 -74 0 c-53 0 -72 -3 -71 -12 2 -10 -147 -14 -712 -16 -393 -1 -725 0 -738 3 -13 3 -20 10 -17 15 4 6 -25 10 -74 10 -45 0 -80 -3 -79 -7z"/> <path d="M6440 3316 c0 -8 -10 -18 -22 -21 -36 -11 -78 -56 -99 -103 -40 -92 -14 -202 61 -262 37 -30 50 -34 104 -34 44 -1 70 4 90 17 25 17 29 17 45 3 21 -19 57 -21 63 -3 2 6 1 55 -2 107 l-5 94 -66 3 c-49 2 -70 -1 -79 -12 -18 -22 -3 -55 26 -55 37 0 42 -29 10 -57 -30 -25 -62 -29 -100 -11 -42 19 -58 54 -58 125 0 57 3 68 28 94 38 40 93 40 139 1 25 -22 39 -28 64 -24 19 3 31 10 31 20 0 23 -49 82 -76 92 -13 5 -24 16 -24 25 0 12 -13 15 -65 15 -50 0 -65 -3 -65 -14z"/> <path d="M7075 3288 c-3 -24 -5 -119 -3 -213 l3 -170 40 0 40 0 3 170 c2 94 0 189 -3 213 -6 40 -8 42 -40 42 -32 0 -34 -2 -40 -42z"/> <path d="M7221 3295 c-10 -28 -10 -39 -1 -50 15 -19 50 -19 74 -2 17 12 17 17 5 50 -10 30 -18 37 -39 37 -21 0 -29 -7 -39 -35z"/> <path d="M8840 3316 c0 -8 -9 -18 -20 -21 -11 -4 -32 -18 -46 -31 -50 -51 -58 -72 -58 -158 -1 -95 20 -140 86 -184 33 -22 52 -26 107 -26 55 0 73 4 96 22 38 30 67 79 63 106 -5 33 -31 25 -51 -17 -52 -111 -199 -93 -241 30 -20 58 -20 78 0 135 19 57 47 84 99 96 56 12 99 -2 133 -44 30 -36 52 -38 52 -7 0 9 -18 33 -40 54 -22 21 -40 43 -40 49 0 6 -28 10 -70 10 -54 0 -70 -3 -70 -14z"/> <path d="M9461 3302 c-8 -18 -11 -90 -9 -212 3 -177 4 -185 23 -185 19 0 20 8 23 170 4 231 -7 300 -37 227z"/> <path d="M11070 3317 c0 -8 -9 -22 -20 -32 -11 -10 -20 -31 -20 -48 0 -17 -8 -35 -17 -42 -17 -12 -17 -14 -1 -32 14 -15 18 -43 20 -138 3 -112 4 -120 23 -120 19 0 20 8 25 117 4 92 9 120 23 135 23 26 22 32 -8 43 -14 5 -25 16 -25 25 0 8 11 25 25 37 14 12 25 32 25 45 0 18 -6 23 -25 23 -14 0 -25 -6 -25 -13z"/> <path d="M5725 3289 c-10 -27 0 -1889 10 -1889 7 0 11 322 13 942 2 874 -1 1004 -23 947z"/> <path d="M9566 3285 c-10 -26 -7 -373 3 -379 5 -4 16 -3 25 0 14 6 16 29 14 198 -3 167 -5 191 -19 194 -9 2 -19 -4 -23 -13z"/> <path d="M6792 3170 c-42 -30 -72 -83 -72 -125 0 -62 60 -137 120 -150 80 -18 153 25 184 107 17 44 17 47 -2 91 -45 101 -149 136 -230 77z m123 -55 c19 -18 25 -35 25 -67 0 -59 -22 -88 -65 -88 -42 0 -58 25 -58 89 0 36 5 49 27 68 34 29 41 29 71 -2z"/> <path d="M7388 3184 c-33 -17 -48 -43 -48 -82 0 -39 38 -72 96 -83 57 -11 89 -35 73 -56 -16 -19 -52 -16 -82 7 -30 24 -75 26 -84 4 -4 -10 6 -27 26 -47 29 -30 35 -31 107 -31 73 0 77 1 105 32 16 18 29 44 29 58 0 32 -47 81 -86 89 -79 17 -89 21 -92 43 -3 18 1 22 25 22 15 0 37 -7 47 -15 22 -17 72 -20 80 -6 10 16 -5 40 -39 61 -39 24 -117 26 -157 4z"/> <path d="M7720 3193 c-23 -8 -70 -55 -70 -70 0 -19 66 -17 100 3 35 21 63 12 58 -18 -2 -18 -13 -25 -53 -34 -54 -12 -96 -30 -107 -48 -4 -6 -8 -27 -8 -47 0 -52 32 -79 96 -79 28 0 55 5 61 11 8 8 17 8 32 -1 12 -6 34 -10 49 -8 l27 3 3 102 c3 116 -9 152 -58 178 -28 15 -100 19 -130 8z m98 -196 c4 -29 -25 -50 -61 -45 -17 2 -22 10 -22 33 0 25 5 31 30 36 42 9 50 6 53 -24z"/> <path d="M8076 3184 c-20 -11 -31 -13 -39 -5 -18 18 -65 13 -77 -8 -5 -11 -10 -74 -10 -140 0 -120 0 -121 25 -127 14 -3 36 -3 50 0 24 6 25 9 25 95 0 94 11 121 48 121 40 -1 47 -17 52 -117 l5 -98 40 0 40 0 3 113 3 113 -35 35 c-38 38 -81 44 -130 18z"/> <path d="M9183 3178 c-40 -29 -73 -86 -73 -128 0 -43 26 -95 62 -125 40 -34 130 -35 170 -2 31 25 58 83 58 125 0 115 -129 192 -217 130z m133 -42 c30 -30 34 -40 34 -89 0 -45 -5 -61 -26 -86 -21 -26 -33 -31 -68 -31 -65 0 -89 31 -90 116 -1 62 1 67 32 95 43 39 76 37 118 -5z"/> <path d="M9739 3183 c-15 -9 -38 -34 -53 -57 -43 -66 -31 -151 29 -206 22 -21 36 -25 90 -25 53 0 67 4 89 24 26 24 34 55 18 65 -5 3 -22 -8 -37 -24 -23 -24 -37 -30 -71 -30 -51 0 -97 37 -92 74 3 20 9 21 100 24 109 3 123 11 113 64 -17 86 -116 135 -186 91z m109 -39 c30 -21 45 -51 34 -70 -7 -12 -28 -17 -86 -19 -42 -2 -76 0 -76 5 0 5 -3 15 -6 24 -4 10 6 27 24 46 34 34 74 39 110 14z"/> <path d="M10016 3165 c-73 -72 -56 -196 32 -242 26 -14 52 -13 115 2 24 7 27 5 27 -17 0 -40 -39 -68 -95 -68 -31 0 -55 6 -66 16 -11 10 -25 14 -35 10 -16 -6 -15 -10 8 -33 23 -23 35 -26 97 -27 65 0 74 2 99 27 27 27 27 28 30 189 4 171 -2 195 -40 161 -17 -15 -19 -15 -36 0 -11 10 -35 17 -60 17 -34 0 -48 -6 -76 -35z m124 -10 c39 -20 50 -43 50 -102 -1 -63 -23 -93 -76 -100 -59 -8 -95 25 -102 95 -4 49 -2 54 31 87 39 39 54 42 97 20z"/> <path d="M10354 3175 c-80 -48 -98 -158 -37 -233 53 -65 161 -69 208 -8 14 18 25 36 25 39 0 17 -39 5 -60 -18 -44 -47 -142 -24 -150 35 -5 37 -1 39 103 42 l102 3 3 30 c7 62 -60 135 -124 135 -16 0 -47 -11 -70 -25z m109 -26 c14 -6 30 -23 36 -36 19 -41 -6 -59 -76 -58 -32 0 -64 4 -71 8 -22 14 -13 54 16 76 31 23 60 26 95 10z"/> <path d="M10759 3182 c-74 -49 -97 -120 -64 -197 25 -61 61 -84 130 -84 70 0 105 21 129 81 21 50 20 91 -4 137 -36 72 -131 104 -191 63z m123 -41 c31 -27 33 -34 33 -94 0 -84 -25 -117 -91 -117 -35 0 -47 5 -68 31 -21 25 -26 41 -26 86 0 49 4 59 34 89 42 42 75 44 118 5z"/> <path d="M7215 3168 c-3 -13 -4 -77 -3 -143 l3 -120 45 0 45 0 1 119 c1 164 0 166 -47 166 -32 0 -40 -4 -44 -22z"/> <path d="M8363 3174 c-41 -17 -82 -72 -90 -117 -7 -44 23 -97 75 -132 141 -96 311 95 189 213 -54 52 -111 64 -174 36z m98 -53 c20 -16 24 -29 24 -74 0 -64 -16 -87 -59 -87 -64 0 -87 101 -35 156 27 29 40 30 70 5z"/> <path d="M6520 2711 c-138 -27 -220 -130 -220 -276 0 -117 55 -212 151 -260 93 -47 235 -26 289 42 27 35 52 92 44 104 -3 5 -25 9 -49 9 -39 0 -46 -4 -60 -29 -23 -45 -53 -61 -111 -61 -61 0 -102 28 -134 91 -40 77 -16 222 42 264 44 30 93 37 137 19 23 -9 41 -20 41 -24 0 -20 51 -60 78 -60 44 0 56 20 38 64 -36 85 -144 136 -246 117z"/> <path d="M11306 2698 c-13 -7 -16 -26 -16 -88 0 -88 -7 -95 -60 -65 -70 40 -179 -14 -209 -104 -14 -44 -14 -133 1 -183 7 -25 27 -53 52 -74 35 -30 46 -34 97 -34 38 0 61 5 69 15 16 19 39 19 64 0 21 -16 65 -10 78 9 4 6 8 121 8 256 0 135 -4 250 -8 256 -10 15 -57 23 -76 12z m-64 -229 c26 -14 48 -68 48 -117 0 -74 -66 -134 -124 -112 -41 15 -51 39 -51 116 0 63 3 76 24 98 26 28 67 34 103 15z"/> <path d="M9052 2658 c3 -43 3 -43 43 -43 40 0 40 0 40 40 l0 40 -43 3 -43 3 3 -43z"/> <path d="M8827 2663 c-4 -3 -7 -20 -7 -37 0 -50 -10 -73 -36 -85 -30 -13 -31 -37 -1 -52 12 -7 25 -17 29 -23 4 -6 8 -64 8 -129 l0 -119 30 -28 c32 -30 104 -45 128 -27 21 16 11 61 -15 65 -38 6 -44 24 -41 138 l3 109 27 3 c50 6 46 67 -5 74 -19 3 -22 10 -25 53 -2 27 -9 53 -15 57 -15 10 -71 10 -80 1z"/> <path d="M6945 2549 c-91 -48 -118 -99 -113 -209 2 -65 7 -82 30 -113 51 -66 84 -82 168 -82 84 0 117 16 166 81 31 40 43 135 25 201 -30 111 -175 175 -276 122z m156 -101 c26 -29 29 -40 29 -94 0 -52 -4 -67 -25 -92 -68 -81 -175 -24 -175 92 0 75 41 125 103 126 30 0 44 -7 68 -32z"/> <path d="M7432 2538 c-40 -18 -45 -18 -61 -4 -20 18 -44 20 -72 6 -18 -10 -19 -23 -19 -185 0 -144 3 -176 16 -189 18 -18 47 -20 75 -6 17 10 19 22 19 134 0 110 2 126 21 150 24 31 68 35 92 8 14 -15 17 -41 17 -143 0 -68 4 -130 9 -137 4 -8 24 -14 42 -15 l34 -2 5 125 c3 73 10 134 18 147 26 46 77 56 108 22 16 -18 20 -40 22 -154 3 -89 8 -135 15 -138 7 -2 27 -2 45 0 l32 5 0 162 c0 156 -1 162 -24 187 -50 54 -125 62 -179 19 -32 -26 -39 -25 -83 5 -44 30 -74 30 -132 3z"/> <path d="M8081 2539 c-31 -19 -35 -19 -66 -5 -83 40 -86 32 -83 -255 l3 -244 45 0 45 0 3 73 c3 76 10 84 46 57 11 -9 41 -15 69 -15 60 0 107 26 139 78 20 32 23 50 23 129 0 87 -1 93 -31 130 -56 70 -131 90 -193 52z m100 -90 c26 -28 29 -38 29 -98 -1 -71 -16 -102 -58 -115 -67 -22 -122 34 -122 120 0 108 87 161 151 93z"/> <path d="M9371 2540 c-32 -20 -35 -20 -68 -5 -20 10 -45 14 -59 11 l-24 -6 0 -185 c0 -169 2 -185 18 -194 11 -6 32 -7 48 -2 l29 7 5 133 c5 126 6 133 30 151 34 26 66 25 95 -5 24 -23 25 -29 25 -155 0 -71 3 -131 8 -131 41 -6 60 -6 71 0 20 12 16 307 -4 338 -38 57 -119 77 -174 43z"/> <path d="M9735 2548 c-36 -13 -82 -53 -101 -90 -32 -62 -10 -183 43 -230 48 -43 133 -60 169 -33 31 24 44 18 44 -19 0 -65 -87 -100 -141 -57 -38 30 -109 32 -109 4 1 -23 17 -43 58 -72 27 -19 46 -23 112 -23 70 0 85 3 120 26 63 42 70 69 70 291 l0 193 -26 6 c-14 4 -41 2 -59 -4 -26 -9 -41 -8 -70 5 -43 17 -67 18 -110 3z m127 -88 c54 -42 58 -130 8 -175 -29 -27 -99 -24 -122 5 -76 94 23 242 114 170z"/> <path d="M10294 2546 c-58 -21 -105 -81 -81 -105 19 -19 62 -12 87 14 21 22 32 25 75 23 46 -3 50 -5 53 -31 3 -23 -2 -30 -32 -42 -19 -8 -47 -15 -61 -15 -34 0 -94 -26 -122 -52 -18 -17 -23 -32 -23 -73 0 -44 4 -55 30 -80 25 -24 41 -30 93 -33 49 -3 66 -1 76 12 17 20 30 20 67 1 16 -8 40 -12 52 -8 21 5 22 9 22 142 0 75 -4 151 -10 170 -20 72 -134 111 -226 77z m134 -240 c6 -65 -61 -109 -120 -79 -55 27 -23 103 44 103 13 0 30 5 38 10 24 16 35 6 38 -34z"/> <path d="M10751 2538 c-31 -15 -46 -18 -49 -10 -2 6 -19 14 -38 18 -61 11 -64 2 -64 -180 0 -212 4 -224 67 -207 l28 7 5 128 c5 125 6 128 33 152 32 27 63 30 92 8 18 -13 21 -30 25 -151 l5 -137 29 -7 c16 -5 37 -4 48 2 16 9 18 24 18 149 0 174 -12 207 -83 238 -40 17 -66 15 -116 -10z"/> <path d="M8388 2543 c-10 -2 -18 -10 -18 -16 -5 -96 4 -294 12 -313 18 -38 68 -64 125 -64 33 0 55 5 63 15 16 19 34 19 63 1 32 -21 74 -10 82 21 9 38 4 326 -6 345 -11 21 -68 25 -87 6 -8 -8 -12 -52 -12 -134 0 -104 -3 -125 -19 -145 -21 -26 -82 -32 -103 -11 -9 9 -14 56 -16 145 -4 155 -12 169 -84 150z"/> <path d="M9057 2544 c-12 -13 -8 -382 4 -386 6 -2 27 -2 45 0 l34 4 -2 192 -3 191 -35 3 c-20 2 -39 0 -43 -4z"/> <path d="M6322 1933 l-22 -4 2 -267 3 -267 44 -3 c28 -2 47 1 52 10 11 16 12 515 2 521 -16 8 -59 14 -81 10z"/> <path d="M7040 1933 c-47 -9 -89 -50 -96 -94 -5 -27 -15 -46 -30 -56 -33 -21 -32 -66 1 -81 24 -11 24 -13 27 -159 l3 -148 45 0 45 0 5 155 5 155 26 3 c48 6 42 65 -6 74 -31 5 -28 60 4 68 28 6 42 36 30 68 -8 22 -13 23 -59 15z"/> <path d="M9176 1927 c-12 -9 -17 -23 -14 -42 3 -28 6 -30 48 -30 42 0 45 2 48 29 2 16 0 32 -5 36 -17 15 -60 19 -77 7z"/> <path d="M10415 1923 c-45 -23 -65 -44 -81 -82 -18 -43 -18 -71 1 -119 19 -45 58 -70 155 -96 36 -10 84 -26 108 -37 38 -17 42 -22 42 -54 0 -29 -6 -39 -32 -55 -65 -40 -155 -20 -190 41 -15 25 -23 29 -63 29 -39 0 -45 -3 -45 -21 0 -44 42 -98 96 -125 130 -63 287 -29 330 73 40 93 -15 197 -116 219 -73 15 -159 47 -174 63 -42 47 -3 95 80 95 52 1 57 -1 95 -42 33 -36 44 -43 72 -40 28 3 32 7 35 34 4 38 -33 86 -89 114 -49 26 -179 27 -224 3z"/> <path d="M11242 1929 c-19 -7 -23 -15 -20 -41 3 -32 4 -33 53 -33 46 0 50 2 53 25 1 14 -1 30 -5 36 -12 16 -55 23 -81 13z"/> <path d="M8937 1893 c-4 -3 -7 -28 -7 -55 0 -42 -3 -50 -24 -57 -41 -16 -42 -56 0 -71 24 -9 24 -12 24 -134 0 -115 2 -127 23 -151 24 -28 79 -42 122 -31 21 5 26 12 23 34 -2 19 -10 28 -25 30 -35 5 -41 22 -44 128 -3 107 1 124 31 124 25 0 41 30 29 53 -6 9 -19 17 -29 17 -19 0 -44 32 -33 43 3 3 2 22 -1 42 -6 33 -9 35 -45 35 -21 0 -41 -3 -44 -7z"/> <path d="M6637 1770 c-30 -24 -41 -25 -57 -5 -7 8 -28 15 -46 15 -44 0 -45 -6 -42 -215 l3 -170 45 0 45 0 3 125 c3 119 4 126 29 152 33 34 72 36 101 5 19 -20 22 -36 24 -152 l3 -130 45 0 45 0 3 145 c2 125 0 150 -16 179 -35 65 -132 92 -185 51z"/> <path d="M8010 1770 c-31 -16 -38 -17 -57 -4 -28 18 -67 18 -82 0 -8 -9 -11 -69 -9 -192 l3 -179 45 0 45 0 5 131 c6 146 17 174 70 174 51 0 59 -23 62 -170 l3 -135 38 -3 c62 -5 67 4 67 142 0 115 1 124 23 144 28 26 69 29 88 6 10 -12 16 -59 19 -153 l5 -136 42 -3 c38 -3 43 -1 49 22 3 14 4 89 2 167 l-3 141 -39 34 c-49 43 -96 45 -150 9 -20 -14 -43 -25 -50 -25 -6 0 -27 11 -46 25 -40 30 -82 31 -130 5z"/> <path d="M8584 1771 c-85 -39 -103 -124 -22 -104 12 3 30 12 38 19 8 7 28 18 44 24 53 20 116 -24 83 -57 -12 -12 -55 -26 -149 -47 -14 -3 -40 -20 -57 -37 -53 -52 -38 -140 30 -175 40 -20 112 -18 151 6 29 17 34 18 49 4 10 -9 31 -14 51 -12 l33 3 0 150 c0 163 -6 184 -62 221 -40 26 -139 29 -189 5z m153 -203 c10 -18 4 -57 -14 -85 -29 -44 -124 -40 -136 6 -7 30 15 53 69 72 62 21 71 22 81 7z"/> <path d="M9485 1780 c-58 -13 -106 -43 -136 -87 -27 -39 -31 -53 -31 -114 -1 -62 3 -75 29 -112 84 -120 252 -120 337 0 25 37 29 50 29 113 0 62 -4 76 -29 113 -43 61 -134 101 -199 87z m73 -76 c31 -9 62 -72 62 -126 0 -30 -8 -55 -25 -81 -24 -34 -29 -37 -74 -37 -42 0 -53 4 -75 30 -36 44 -43 92 -20 149 26 61 68 82 132 65z"/> <path d="M9917 1769 c-35 -19 -40 -19 -56 -5 -10 9 -32 16 -49 16 -42 0 -43 -8 -40 -215 l3 -170 39 -3 c24 -2 42 2 47 10 5 7 9 62 9 121 0 135 19 176 81 177 52 0 63 -29 69 -174 l5 -131 45 0 45 0 3 140 c3 164 -7 200 -68 234 -47 26 -84 26 -133 0z"/> <path d="M10915 1773 c-45 -23 -85 -64 -101 -103 -21 -50 -22 -138 -2 -180 72 -150 283 -161 343 -17 17 42 13 47 -37 47 -31 0 -44 -6 -65 -30 -33 -40 -88 -42 -124 -4 -20 22 -24 35 -24 92 0 92 21 121 87 122 40 0 50 -4 64 -25 13 -19 25 -25 55 -25 45 0 53 9 39 44 -31 81 -153 123 -235 79z"/> <path d="M11495 1771 c-47 -22 -89 -64 -104 -104 -15 -40 -14 -131 3 -170 40 -97 156 -149 251 -113 46 18 109 79 102 99 -6 19 -97 14 -112 -6 -20 -28 -98 -23 -130 8 -14 14 -25 35 -25 45 0 19 8 20 129 20 91 0 132 4 139 13 17 20 2 100 -27 142 -53 78 -143 104 -226 66z m129 -82 c29 -23 34 -54 10 -63 -9 -3 -42 -6 -74 -6 -71 0 -91 16 -63 54 29 41 86 47 127 15z"/> <path d="M11957 1768 c-35 -19 -39 -19 -56 -4 -24 22 -68 20 -81 -3 -15 -29 -13 -344 2 -359 16 -16 70 -16 86 0 8 8 12 52 12 130 0 114 1 120 25 144 19 19 34 24 58 22 52 -5 68 -49 66 -180 -1 -58 2 -111 5 -117 11 -18 83 -14 90 5 3 9 6 72 6 140 0 104 -3 131 -20 163 -38 76 -118 100 -193 59z"/> <path d="M12334 1771 c-22 -10 -56 -38 -75 -62 -33 -42 -34 -46 -34 -129 0 -83 1 -87 34 -129 87 -110 247 -106 309 7 13 23 21 46 17 52 -3 5 -24 10 -45 10 -31 0 -43 -6 -63 -31 -21 -27 -29 -30 -67 -27 -38 3 -48 8 -68 38 -32 47 -28 137 8 175 33 35 97 35 130 0 17 -18 34 -25 62 -25 45 0 49 16 18 67 -40 67 -144 91 -226 54z"/> <path d="M12733 1767 c-99 -52 -140 -181 -89 -282 51 -101 189 -143 283 -85 39 23 67 64 59 85 -8 22 -68 19 -97 -5 -35 -31 -115 -25 -142 12 -37 50 -22 58 116 58 140 0 154 6 142 62 -9 47 -39 110 -62 130 -55 50 -143 60 -210 25z m121 -67 c14 -5 30 -19 36 -30 19 -35 -3 -50 -75 -50 -72 0 -94 15 -75 50 19 35 67 48 114 30z"/> <path d="M13123 1771 c-64 -29 -89 -94 -61 -156 12 -27 81 -65 118 -65 43 0 109 -37 110 -62 0 -19 -35 -38 -70 -38 -29 0 -48 8 -73 30 -35 30 -89 41 -102 20 -9 -14 20 -65 50 -89 40 -31 121 -46 174 -31 61 16 111 67 111 111 0 80 -26 104 -145 134 -93 24 -123 59 -70 83 40 18 74 14 100 -12 24 -24 68 -38 92 -29 35 14 -9 82 -69 107 -50 21 -114 20 -165 -3z"/> <path d="M7225 1748 c-147 -101 -117 -308 52 -363 47 -16 56 -16 106 -1 128 37 190 173 131 288 -37 72 -100 108 -188 108 -44 0 -62 -6 -101 -32z m176 -66 c29 -26 32 -33 32 -96 0 -93 -20 -120 -93 -124 -64 -4 -83 11 -99 74 -33 129 72 224 160 146z"/> <path d="M7594 1767 c-2 -7 -3 -94 -2 -192 l3 -180 45 0 45 0 5 120 c3 66 9 127 13 136 8 16 51 41 90 53 12 4 17 16 17 41 0 31 -3 35 -25 35 -14 0 -37 -7 -50 -16 -23 -15 -27 -15 -50 0 -29 19 -84 21 -91 3z"/> <path d="M9164 1767 c-2 -7 -3 -94 -2 -192 l3 -180 45 0 45 0 3 170 c3 214 3 215 -49 215 -23 0 -42 -5 -45 -13z"/> <path d="M11232 1768 c-17 -17 -17 -349 0 -366 18 -18 85 -15 92 4 8 20 8 322 0 352 -5 18 -13 22 -43 22 -20 0 -42 -5 -49 -12z"/> </g> </svg> 